<mxfile host="app.diagrams.net" modified="2024-03-08T13:29:07.581Z" agent="Mozilla/5.0 (Windows NT 10.0; Win64; x64) AppleWebKit/537.36 (KHTML, like Gecko) Chrome/121.0.0.0 Safari/537.36" etag="1vZQvD77FqknCrUYpZtZ" version="23.1.8" type="github">
  <diagram name="Lapa-1" id="KPvquFSmwWqakFf00gwk">
    <mxGraphModel dx="2620" dy="975" grid="1" gridSize="10" guides="1" tooltips="1" connect="1" arrows="1" fold="1" page="1" pageScale="1" pageWidth="827" pageHeight="1169" math="0" shadow="0">
      <root>
        <mxCell id="0" />
        <mxCell id="1" parent="0" />
        <mxCell id="jMKohJV3Y4cP6Zf-13Iu-1" value="" style="rounded=0;whiteSpace=wrap;html=1;" vertex="1" parent="1">
          <mxGeometry x="-220" y="40" width="320" height="650" as="geometry" />
        </mxCell>
        <mxCell id="jMKohJV3Y4cP6Zf-13Iu-2" value="" style="rounded=0;whiteSpace=wrap;html=1;" vertex="1" parent="1">
          <mxGeometry x="-220" y="50" width="180" height="650" as="geometry" />
        </mxCell>
        <mxCell id="jMKohJV3Y4cP6Zf-13Iu-3" value="" style="rounded=0;whiteSpace=wrap;html=1;" vertex="1" parent="1">
          <mxGeometry x="-220" y="50" width="180" height="90" as="geometry" />
        </mxCell>
        <mxCell id="jMKohJV3Y4cP6Zf-13Iu-5" value="" style="whiteSpace=wrap;html=1;aspect=fixed;" vertex="1" parent="1">
          <mxGeometry x="-210" y="160" width="30" height="30" as="geometry" />
        </mxCell>
        <mxCell id="jMKohJV3Y4cP6Zf-13Iu-6" value="Text" style="text;html=1;align=center;verticalAlign=middle;whiteSpace=wrap;rounded=0;" vertex="1" parent="1">
          <mxGeometry x="-180" y="160" width="60" height="30" as="geometry" />
        </mxCell>
        <mxCell id="jMKohJV3Y4cP6Zf-13Iu-7" value="" style="whiteSpace=wrap;html=1;aspect=fixed;" vertex="1" parent="1">
          <mxGeometry x="-210" y="220" width="30" height="30" as="geometry" />
        </mxCell>
        <mxCell id="jMKohJV3Y4cP6Zf-13Iu-8" value="Text" style="text;html=1;align=center;verticalAlign=middle;whiteSpace=wrap;rounded=0;" vertex="1" parent="1">
          <mxGeometry x="-180" y="220" width="60" height="30" as="geometry" />
        </mxCell>
        <mxCell id="jMKohJV3Y4cP6Zf-13Iu-9" value="" style="whiteSpace=wrap;html=1;aspect=fixed;" vertex="1" parent="1">
          <mxGeometry x="-210" y="280" width="30" height="30" as="geometry" />
        </mxCell>
        <mxCell id="jMKohJV3Y4cP6Zf-13Iu-10" value="report" style="text;html=1;align=center;verticalAlign=middle;whiteSpace=wrap;rounded=0;" vertex="1" parent="1">
          <mxGeometry x="-180" y="280" width="60" height="30" as="geometry" />
        </mxCell>
        <mxCell id="jMKohJV3Y4cP6Zf-13Iu-11" value="" style="whiteSpace=wrap;html=1;aspect=fixed;" vertex="1" parent="1">
          <mxGeometry x="-210" y="330" width="30" height="30" as="geometry" />
        </mxCell>
        <mxCell id="jMKohJV3Y4cP6Zf-13Iu-12" value="Text" style="text;html=1;align=center;verticalAlign=middle;whiteSpace=wrap;rounded=0;" vertex="1" parent="1">
          <mxGeometry x="-180" y="330" width="60" height="30" as="geometry" />
        </mxCell>
        <mxCell id="jMKohJV3Y4cP6Zf-13Iu-13" value="" style="endArrow=classic;html=1;rounded=0;exitX=1;exitY=0.5;exitDx=0;exitDy=0;" edge="1" parent="1" source="jMKohJV3Y4cP6Zf-13Iu-10">
          <mxGeometry width="50" height="50" relative="1" as="geometry">
            <mxPoint x="190" y="295" as="sourcePoint" />
            <mxPoint x="580" y="280" as="targetPoint" />
          </mxGeometry>
        </mxCell>
        <mxCell id="jMKohJV3Y4cP6Zf-13Iu-18" value="report a object/asset? not working" style="edgeLabel;html=1;align=center;verticalAlign=middle;resizable=0;points=[];" vertex="1" connectable="0" parent="jMKohJV3Y4cP6Zf-13Iu-13">
          <mxGeometry x="0.0287" y="1" relative="1" as="geometry">
            <mxPoint as="offset" />
          </mxGeometry>
        </mxCell>
        <mxCell id="jMKohJV3Y4cP6Zf-13Iu-14" value="" style="rounded=0;whiteSpace=wrap;html=1;" vertex="1" parent="1">
          <mxGeometry x="580" y="20" width="300" height="680" as="geometry" />
        </mxCell>
        <mxCell id="jMKohJV3Y4cP6Zf-13Iu-19" value="what&lt;br style=&quot;font-size: 16px;&quot;&gt;where&lt;br style=&quot;font-size: 16px;&quot;&gt;when&lt;br style=&quot;font-size: 16px;&quot;&gt;who? - through what email or what." style="text;html=1;align=center;verticalAlign=middle;resizable=0;points=[];autosize=1;strokeColor=none;fillColor=none;fontSize=16;" vertex="1" parent="1">
          <mxGeometry x="110" y="315" width="270" height="90" as="geometry" />
        </mxCell>
      </root>
    </mxGraphModel>
  </diagram>
</mxfile>
